Swamp Shark (2011) DVDRip AC3 5.1 NLSubs
.
[IMG]http://img860.imageshack.us/img860/3324/68636.jpg[/IMG]
.
Verenigde Staten
Science-Fiction
.
geregisseerd door Griff Furst
met Kristy Swanson, Robert Davi en D.B. Sweeney
.
De film speelt zich af in de mooie moerassen van Atchafalaya Basin tijdens de zomer. Veel mooie tieners liggen in het weekend aan het strand voor het 'Gator Fest' begint. Die nacht loopt een dierensmokkel gruwelijk uit de hand en ontsnapt er een groot zeedier de afgelegen riviertjes in. Bij het restaurant van McDaniel wordt de lokale dronkenlap Jackson doodgebeten teruggevonden. De sheriff beschuldigt de ontsnapte alligators van McDaniel ervan en probeert hem in de gevangenis te krijgen. Rachel McDaniel, het hoofd van de familie, beweert echter dat zij de vin van een haai boven het water heeft zien uitkomen. Samen met de hulp van haar familie en de mysterieuze vreemdeling Charlie besluit ze het wezen een bezoekje te brengen om de naam van haar familie te zuiveren en het 'Gator Fest' toch te kunnen laten doorgaan.
. 
http://www.moviemeter.nl/film/68636
.
PLOT
.
Open on gorgeous swamplands of the Atchafalaya Basin in the summer. Lots of beautiful teens are at the beach the weekend before Gator Fest...
.
INFO
.
Source: Swamp Shark (2011) PAL Retail NL Subs DMT 
ID                               : 0
Format                           : MPEG-4 Visual
Format profile                   : Advanced Simple@L5
Format settings, BVOP            : Yes
Format settings, QPel            : No
Format settings, GMC             : No warppoints
Format settings, Matrix          : Default (H.263)
Muxing mode                      : Packed bitstream
Codec ID                         : DX50
Codec ID/Hint                    : DivX 5
Duration                         : 1h 25mn
Bit rate                         : 1 840 Kbps
Width                            : 704 pixels
Height                           : 396 pixels
Display aspect ratio             : 16:9
Frame rate                       : 25.000 fps
Color space                      : YUV
Chroma subsampling               : 4:2:0
Bit depth                        : 8 bits
Scan type                        : Progressive
Bits/(Pixel*Frame)               : 0.264
Stream size                      : 1.10 GiB (80%)
Writing library                  : XviD 1.2.1 (UTC 2008-12-04)

Audio
ID                               : 1
Format                           : AC-3
Format/Info                      : Audio Coding 3
Mode extension                   : CM (complete main)
Codec ID                         : 2000
Duration                         : 1h 25mn
Bit rate mode                    : Constant
Bit rate                         : 448 Kbps
Channel(s)                       : 6 channels
Channel positions                : Front: L C R, Side: L R, LFE
Sampling rate                    : 48.0 KHz
Bit depth                        : 16 bits
Stream size                      : 273 MiB (19%)
Alignment                        : Aligned on interleaves
Interleave, duration             : 32 ms (0.80 video frame)
Interleave, preload duration     : 32 ms

Subs: Dutch (SRT file)
.
ENJOY
